<svg xmlns="http://www.w3.org/2000/svg" viewBox="0 0 680 380" font-family="-apple-system,Segoe UI,Roboto,Helvetica,Arial,sans-serif">
  <rect width="680" height="380" fill="#ffffff"/>
  <text x="340" y="34" fill="#1f2328" font-size="18" font-weight="700" text-anchor="middle">提示词优化生命周期：风格与原理</text>
  <g fill="#f6f8fa" stroke="#d0d7de" stroke-width="1.5">
    <rect x="250" y="70" width="180" height="48" rx="8"/>
    <rect x="60" y="165" width="180" height="48" rx="8"/>
    <rect x="440" y="165" width="180" height="48" rx="8"/>
    <rect x="250" y="280" width="180" height="48" rx="8"/>
  </g>
  <g fill="#1f2328" font-size="14" text-anchor="middle">
    <text x="340" y="99">基础提示词</text>
    <text x="150" y="194">风格层 · 措辞/格式/语气</text>
    <text x="530" y="194">原理层 · 角色/约束/CoT</text>
    <text x="340" y="309">评测 + 红队门禁 → 棘轮合入</text>
  </g>
  <g stroke="#0969da" stroke-width="2" fill="none" marker-end="url(#a)">
    <path d="M340 118 L260 165"/>
    <path d="M420 165 L520 165"/>
    <path d="M530 213 L530 280"/>
    <path d="M420 304 L340 280"/>
    <path d="M240 304 L145 213"/>
    <path d="M145 165 L240 118"/>
  </g>
  <defs><marker id="a" markerWidth="10" markerHeight="10" refX="8" refY="3" orient="auto"><path d="M0,0 L8,3 L0,6 Z" fill="#0969da"/></marker></defs>
  <text x="340" y="360" fill="#656d76" font-size="12" text-anchor="middle">A 自评审 → D 自适应：风格与原理双轮驱动，评测/红队校验后棘轮合入</text>
</svg>
